HIERARCHY
ROOT Hips
{
	OFFSET 0.000000 0.000000 0.000000 
	CHANNELS 6 Xposition Yposition Zposition Xrotation Yrotation Zrotation
	JOINT Spine
	{
		OFFSET 0.000000 1.152660 1.729000 
		CHANNELS 3 Xrotation Yrotation Zrotation
		JOINT Spine1
		{
			OFFSET 0.000000 0.400320 2.270310 
			CHANNELS 3 Xrotation Yrotation Zrotation
			JOINT Spine2
			{
				OFFSET 0.000000 0.200920 2.296560 
				CHANNELS 3 Xrotation Yrotation Zrotation
				JOINT Spine3
				{
					OFFSET 0.000000 0.000000 2.305330 
					CHANNELS 3 Xrotation Yrotation Zrotation
					JOINT Neck
					{
						OFFSET 0.000000 -0.864490 6.051490 
						CHANNELS 3 Xrotation Yrotation Zrotation
						JOINT Head
						{
							OFFSET 0.000000 -0.550430 3.121670 
							CHANNELS 3 Xrotation Yrotation Zrotation
							End Site
							{
								OFFSET 0.000000 0.000000 3.731750 
							}
						}
					}
					JOINT RightShoulder
					{
						OFFSET -0.788280 -1.313800 4.256720 
						CHANNELS 3 Xrotation Yrotation Zrotation
						JOINT RightArm
						{
							OFFSET -3.915130 0.000000 0.000000 
							CHANNELS 3 Xrotation Yrotation Zrotation
							JOINT RightForeArm
							{
								OFFSET -6.914910 0.000000 0.000000 
								CHANNELS 3 Xrotation Yrotation Zrotation
								JOINT RightHand
								{
									OFFSET -6.096220 0.000000 0.000000 
									CHANNELS 3 Xrotation Yrotation Zrotation
									JOINT RightHandEnd
									{
										OFFSET -1.749950 0.000000 0.000000 
										CHANNELS 3 Xrotation Yrotation Zrotation
										End Site
										{
											OFFSET -1.749950 0.000000 0.000000 
										}
									}
									JOINT RightHandThumb1
									{
										OFFSET -0.699980 -1.166630 -0.466650 
										CHANNELS 3 Yrotation Xrotation Zrotation
										End Site
										{
											OFFSET -1.690320 -0.452920 0.000000 
										}
									}
								}
							}
						}
					}
					JOINT LeftShoulder
					{
						OFFSET 0.788280 -1.313800 4.256720 
						CHANNELS 3 Xrotation Yrotation Zrotation
						JOINT LeftArm
						{
							OFFSET 3.915130 0.000000 0.000000 
							CHANNELS 3 Xrotation Yrotation Zrotation
							JOINT LeftForeArm
							{
								OFFSET 6.914910 0.000000 0.000000 
								CHANNELS 3 Xrotation Yrotation Zrotation
								JOINT LeftHand
								{
									OFFSET 6.096220 0.000000 0.000000 
									CHANNELS 3 Xrotation Yrotation Zrotation
									JOINT LeftHandEnd
									{
										OFFSET 1.749950 0.000000 0.000000 
										CHANNELS 3 Xrotation Yrotation Zrotation
										End Site
										{
											OFFSET 1.749950 0.000000 0.000000 
										}
									}
									JOINT LeftHandThumb1
									{
										OFFSET 0.699980 -1.166630 -0.466650 
										CHANNELS 3 Yrotation Xrotation Zrotation
										End Site
										{
											OFFSET 1.690320 -0.452920 0.000000 
										}
									}
								}
							}
						}
					}
				}
			}
		}
	}
	JOINT RightUpLeg
	{
		OFFSET -2.338570 0.000000 -0.683180 
		CHANNELS 3 Xrotation Yrotation Zrotation
		JOINT RightLeg
		{
			OFFSET 0.000000 0.000000 -10.744960 
			CHANNELS 3 Xrotation Yrotation Zrotation
			JOINT RightFoot
			{
				OFFSET 0.000000 0.000000 -10.930850 
				CHANNELS 3 Xrotation Yrotation Zrotation
				JOINT RightToeBase
				{
					OFFSET 0.000000 -4.087270 -1.487650 
					CHANNELS 3 Xrotation Yrotation Zrotation
					End Site
					{
						OFFSET 0.000000 -1.891870 -0.000000 
					}
				}
			}
		}
	}
	JOINT LeftUpLeg
	{
		OFFSET 2.338570 0.000000 -0.683180 
		CHANNELS 3 Xrotation Yrotation Zrotation
		JOINT LeftLeg
		{
			OFFSET 0.000000 0.000000 -10.744960 
			CHANNELS 3 Xrotation Yrotation Zrotation
			JOINT LeftFoot
			{
				OFFSET 0.000000 0.000000 -10.930850 
				CHANNELS 3 Xrotation Yrotation Zrotation
				JOINT LeftToeBase
				{
					OFFSET 0.000000 -4.087270 -1.487650 
					CHANNELS 3 Xrotation Yrotation Zrotation
					End Site
					{
						OFFSET 0.000000 -1.891870 -0.000000 
					}
				}
			}
		}
	}
}
MOTION
Frames: 12
Frame Time: 0.033470
-1.122100 -14.051900 29.533600 -10.218400 -5.858800 167.610199 27.038799 -0.874200 -1.620000 8.114600 -0.069000 -0.165000 9.664700 1.054800 5.467800 -0.146400 0.429900 1.043300 -8.101200 -1.177900 1.266300 -1.129300 -5.731200 -1.581000 9.855800 -11.102400 13.958800 2.566800 -44.203701 7.141600 0.000000 0.000000 32.658901 22.884399 41.030102 -8.196700 0.000000 0.000000 0.000000 0.000000 -0.000000 0.000000 12.104000 11.512800 -7.111700 16.749201 30.476601 -34.182800 -0.000000 -0.000000 -16.383200 -19.970200 -43.676899 -13.760600 -0.000000 0.000000 0.000000 0.000000 -0.000000 0.000000 -46.039299 -0.466200 -14.616700 17.920099 0.000000 0.000000 39.430901 -7.041200 8.155700 4.600200 0.000000 0.000000 -46.392399 -22.975401 23.652599 24.753401 0.000000 0.000000 38.719101 16.220699 -29.509001 -3.237500 0.000000 -0.000000 
-0.887700 -11.411100 27.860901 -5.958300 -7.463300 168.164307 28.357300 -1.790000 -1.035400 8.633500 0.187700 -0.352400 12.958400 1.347200 4.960100 1.322600 0.491400 0.703000 -6.724800 -0.533800 1.714200 0.024900 -5.440700 -1.360000 15.195100 -11.715200 9.786600 6.993900 -51.716900 7.689400 0.000000 0.000000 30.917000 18.079000 40.249298 -5.046400 0.000000 -0.000000 0.000000 -0.000000 0.000000 0.000000 15.347200 12.570600 -4.013000 25.227301 37.701900 -40.987999 -0.000000 -0.000000 -13.181000 -23.850401 -42.617100 -15.544700 -0.000000 -0.000000 -0.000000 0.000000 0.000000 0.000000 -44.436001 -1.665800 -13.574500 14.884300 0.000000 0.000000 42.551701 -7.389700 9.119000 5.701400 0.000000 0.000000 -43.346298 -22.335699 27.014200 15.766600 0.000000 0.000000 42.337101 23.981199 -25.503099 -3.821800 0.000000 -0.000000 
-0.591400 -8.633200 25.693001 0.136000 -9.445000 168.948105 29.658701 -2.419700 -0.308800 8.929500 0.453500 -0.451000 15.545200 1.322300 4.210100 2.966900 0.429200 0.658600 -4.491700 -0.630000 1.482800 2.205400 -5.086700 -0.826600 17.582300 -10.551300 5.550100 10.983900 -57.748699 10.610100 0.000000 0.000000 29.212799 12.908600 39.711399 -0.742000 -0.000000 0.000000 0.000000 -0.000000 -0.000000 0.000000 16.046801 11.966800 -0.628100 33.605999 40.969101 -49.475700 -0.000000 -0.000000 -9.058600 -26.175200 -40.761200 -17.295300 0.000000 0.000000 0.000000 -0.000000 0.000000 0.000000 -41.034901 -3.150400 -7.504800 16.957399 0.000000 0.000000 45.686901 -8.061900 9.282600 4.499300 0.000000 0.000000 -39.337898 -23.252199 28.438101 15.102200 0.000000 0.000000 44.793201 24.655399 -24.422899 -5.782800 0.000000 -0.000000 
-0.267300 -6.100900 23.201900 3.856500 -10.147300 169.388596 30.893801 -1.199200 -0.548000 8.060700 0.361800 -0.161100 16.165600 1.340600 3.636500 3.694600 0.212100 0.803900 -3.393500 -1.524500 1.174300 4.247600 -5.038000 0.208500 16.584600 -9.690200 3.225800 12.864800 -58.547298 13.948400 0.000000 0.000000 28.668600 9.748600 42.436401 1.745300 0.000000 -0.000000 -0.000000 -0.000000 0.000000 0.000000 14.225700 10.872900 0.077400 35.003502 40.179100 -51.705898 -0.000000 -0.000000 -6.579400 -28.162901 -41.641499 -19.002600 -0.000000 0.000000 -0.000000 0.000000 0.000000 -0.000000 -42.799099 -3.795900 -4.613300 28.823200 0.000000 0.000000 39.445099 -6.928700 10.028800 3.021200 0.000000 0.000000 -41.835300 -25.325199 24.729601 27.607901 0.000000 0.000000 36.825401 16.004000 -23.550900 -4.306800 0.000000 -0.000000 
0.043100 -3.864600 20.349199 5.056500 -11.416800 168.738205 32.200699 -0.292300 -0.678100 7.590700 0.210100 0.098700 14.491600 1.489300 3.797800 2.815800 0.064000 0.848300 -3.817800 -2.124900 1.600200 5.417500 -5.030600 0.881400 14.017700 -9.755100 4.899100 8.352900 -54.264099 12.073600 0.000000 0.000000 31.417999 9.604900 45.651199 1.708400 0.000000 0.000000 0.000000 0.000000 -0.000000 0.000000 11.621400 10.533700 -2.832900 27.834999 36.848000 -45.683800 -0.000000 -0.000000 -6.758200 -29.409901 -44.971600 -20.837999 -0.000000 0.000000 -0.000000 0.000000 -0.000000 -0.000000 -51.944099 -4.121300 -6.282200 53.853100 0.000000 0.000000 18.694799 -4.111100 10.789500 4.664900 0.000000 0.000000 -54.917801 -28.746500 13.779800 55.997898 0.000000 0.000000 14.066000 2.382700 -20.810801 2.217200 0.000000 0.000000 
0.290300 -1.848800 17.626200 8.305600 -13.767800 168.283600 35.511002 -0.030200 -0.808700 9.017400 0.163900 0.160500 12.594400 1.591100 5.280100 1.001500 -0.019800 0.895300 -5.124600 -1.884900 2.252900 5.976200 -4.481700 0.514700 11.343300 -9.159400 9.531800 1.037000 -47.804298 8.770300 0.000000 0.000000 37.061298 12.271900 48.734699 -0.038500 0.000000 -0.000000 -0.000000 -0.000000 -0.000000 -0.000000 9.701000 9.487500 -7.328600 16.971300 31.341600 -39.805500 -0.000000 -0.000000 -7.924800 -29.766001 -49.483799 -23.165300 0.000000 0.000000 0.000000 -0.000000 0.000000 0.000000 -59.146801 -3.420000 -8.717200 80.656502 0.000000 0.000000 -3.192400 -1.729800 11.528100 7.543900 0.000000 0.000000 -66.906502 -30.472000 2.281700 84.789703 0.000000 0.000000 -6.599400 -5.246400 -17.912100 5.773600 0.000000 0.000000 
0.452200 -0.402400 15.707200 10.722800 -16.379499 168.185501 38.537701 -0.056800 -0.605600 10.677200 -0.056000 0.258600 12.129400 1.575000 7.511900 -0.618100 -0.160700 1.186600 -6.163300 -1.234400 2.186300 6.749400 -3.506200 -0.457200 8.374200 -6.188100 13.662000 -6.501700 -42.232201 8.780400 -0.000000 0.000000 43.684700 16.767200 51.918598 -2.458900 0.000000 -0.000000 -0.000000 0.000000 -0.000000 -0.000000 8.817200 5.511500 -10.614900 5.136800 25.589701 -41.212002 -0.000000 -0.000000 -8.318600 -30.226400 -53.858101 -25.770800 0.000000 -0.000000 0.000000 -0.000000 0.000000 0.000000 -64.535103 -2.378700 -10.809600 99.642799 0.000000 0.000000 -13.004600 -0.099900 12.085600 6.975700 0.000000 0.000000 -76.530800 -30.586201 -8.145900 104.420502 0.000000 0.000000 -14.947400 -3.374300 -15.684200 4.095700 0.000000 0.000000 
0.500000 0.569700 14.691800 10.883500 -17.496099 168.212708 39.354698 0.037700 -0.273900 11.309400 -0.207500 0.385600 12.850100 1.461900 9.020400 -1.083300 -0.381100 1.656400 -6.383800 -0.946600 1.275000 8.253900 -2.818800 -1.279300 4.581400 -1.326300 14.557700 -13.881400 -40.024899 11.735800 -0.000000 0.000100 49.506901 19.379299 51.503899 -2.800600 0.000000 0.000000 -0.000000 -0.000000 0.000000 0.000000 7.624200 0.039100 -11.643400 -6.356300 21.568399 -46.357300 -0.000000 -0.000000 -8.851100 -28.408300 -55.517300 -26.171101 -0.000000 0.000000 -0.000000 -0.000000 0.000000 -0.000000 -68.659698 -0.993400 -11.716800 109.487999 0.000000 0.000000 -14.039200 0.788700 12.501600 4.553600 0.000000 0.000000 -82.677299 -29.822201 -14.572000 114.003601 0.000000 0.000000 -15.343900 0.911400 -16.071899 1.105600 0.000000 0.000000 
0.467500 1.312600 14.319300 8.979900 -16.816900 168.462296 38.413700 0.168100 -0.139900 10.873200 -0.203300 0.444400 13.223200 1.258700 9.271600 -0.723800 -0.741000 2.067500 -6.514600 -1.186000 0.073500 9.701200 -2.757600 -1.679500 1.065800 3.132100 12.816500 -19.958300 -41.645699 14.466800 -0.000000 0.000100 54.304298 19.967501 49.297699 -2.081700 -0.000000 0.000000 -0.000000 -0.000000 -0.000000 -0.000000 5.170500 -3.900800 -12.156900 -14.404200 18.463900 -49.047100 -0.000000 -0.000000 -10.708400 -25.199301 -55.407001 -25.648701 -0.000000 -0.000000 0.000000 -0.000000 0.000000 0.000000 -70.746300 0.496200 -11.225600 113.454803 0.000000 0.000000 -16.239700 0.891400 12.925400 3.602000 0.000000 0.000000 -85.482101 -28.911699 -15.942000 117.862503 0.000000 0.000000 -15.896100 2.263900 -17.409599 0.136800 0.000000 0.000000 
0.421800 1.974300 14.394200 6.609100 -15.787000 169.047699 37.381302 0.070300 -0.090300 10.330500 -0.248600 0.419000 12.633000 1.015500 8.998600 -0.541600 -1.046800 2.248700 -6.787400 -1.468000 -0.718600 10.561500 -2.964800 -1.961100 -0.332200 5.229000 11.181500 -24.548901 -43.703201 13.611600 -0.000000 0.000100 59.583401 22.098400 48.220501 -2.844000 0.000000 -0.000000 -0.000000 0.000000 0.000000 -0.000000 3.512600 -5.109300 -12.491600 -18.566000 15.369400 -49.103901 -0.000000 -0.000000 -12.885800 -24.388300 -55.944901 -27.123699 -0.000000 -0.000000 -0.000000 -0.000000 0.000000 0.000000 -70.598297 1.665600 -10.334100 115.009102 0.000000 0.000000 -20.775101 0.820200 13.079500 3.709700 0.000000 0.000000 -86.225197 -28.367300 -15.069900 119.730698 0.000000 0.000000 -17.771299 2.347200 -17.878401 -0.144700 0.000000 -0.000000 
0.389700 2.572900 14.916900 4.766900 -15.332900 169.664001 36.730400 -0.351300 0.034500 10.049400 -0.382300 0.409500 11.975200 0.816600 8.869100 -0.746300 -1.159300 2.262200 -6.761600 -1.553400 -1.061800 11.459400 -3.193200 -2.354500 0.345200 4.721300 11.007800 -27.419600 -43.380501 9.633800 -0.000000 0.000100 64.400200 25.295000 47.359501 -3.773300 0.000000 0.000000 -0.000000 0.000000 0.000000 -0.000000 3.780200 -4.890500 -12.041600 -21.091600 15.389800 -47.379299 -0.000000 -0.000000 -15.756800 -24.456400 -57.405499 -29.260799 -0.000000 -0.000000 -0.000000 -0.000000 0.000000 0.000000 -69.243797 2.120700 -9.856200 114.427101 0.000000 0.000000 -21.413900 0.807200 12.792500 2.468400 0.000000 0.000000 -85.241096 -28.521000 -13.981300 119.306297 0.000000 0.000000 -16.966499 3.093200 -17.931299 -1.868400 0.000000 -0.000000 
0.337800 3.114700 15.892000 3.427900 -14.679000 170.074905 35.839401 -0.526700 0.026700 9.822300 -0.438600 0.440100 12.027100 0.785200 8.783500 -0.872500 -1.255100 2.253300 -6.341600 -1.761800 -1.392000 12.811100 -3.492900 -2.774500 2.085000 2.603800 11.072100 -27.968399 -41.991402 5.659200 -0.000000 0.000100 66.531700 26.630699 46.372700 -2.985600 0.000000 0.000000 0.000000 -0.000000 0.000000 -0.000000 5.361900 -3.815900 -10.992300 -23.496401 19.393700 -43.597698 -0.000000 -0.000000 -21.289200 -21.404301 -58.373001 -29.317499 0.000000 0.000000 -0.000000 -0.000000 -0.000000 0.000000 -67.136902 2.072600 -9.175700 110.835403 0.000000 0.000000 -16.535299 0.245200 12.718800 0.260300 0.000000 0.000000 -81.534798 -29.024401 -11.448500 115.461098 0.000000 0.000000 -13.239000 3.524500 -18.174900 -4.134600 0.000000 -0.000000 
